<!-- SVG Trading Icons with Purple/Pink Gradient -->
<svg xmlns="http://www.w3.org/2000/svg" width="0" height="0">
  <defs>
    <linearGradient id="purpleGradient" x1="0%" y1="0%" x2="100%" y2="100%">
      <stop offset="0%" style="stop-color:#9c27b0;stop-opacity:1" />
      <stop offset="100%" style="stop-color:#e91e63;stop-opacity:1" />
    </linearGradient>
  </defs>
</svg>

<!-- Trading Chart Icon -->
<svg xmlns="http://www.w3.org/2000/svg" viewBox="0 0 24 24" width="64" height="64">
  <path fill="url(#purpleGradient)" d="M3,3v17h18v-2H5V3H3z M15,7l-4,4l-3-3l-2,2v5h10L15,7z M21,6h-2v9h2V6z"/>
</svg>

<!-- Trading Analysis Icon -->
<svg xmlns="http://www.w3.org/2000/svg" viewBox="0 0 24 24" width="64" height="64">
  <path fill="url(#purpleGradient)" d="M19,3H5C3.9,3,3,3.9,3,5v14c0,1.1,0.9,2,2,2h14c1.1,0,2-0.9,2-2V5C21,3.9,20.1,3,19,3z M9,17H7v-7h2V17z M13,17h-2V7h2V17z M17,17h-2v-4h2V17z"/>
</svg>

<!-- Whale Tracking Icon -->
<svg xmlns="http://www.w3.org/2000/svg" viewBox="0 0 24 24" width="64" height="64">
  <path fill="url(#purpleGradient)" d="M22,12c0-5.52-4.48-10-10-10S2,6.48,2,12s4.48,10,10,10S22,17.52,22,12z M12,13l-4,4h8l-4-4z M12,11l4-4h-8L12,11z"/>
</svg>

<!-- AI Trading Icon -->
<svg xmlns="http://www.w3.org/2000/svg" viewBox="0 0 24 24" width="64" height="64">
  <path fill="url(#purpleGradient)" d="M21,11c0-4.97-4.03-9-9-9s-9,4.03-9,9c0,3.92,2.51,7.24,6,8.48V22h2v-2.06c0.33,0.04,0.66,0.06,1,0.06s0.67-0.02,1-0.06V22h2v-2.52C18.49,18.24,21,14.92,21,11z M15,5.5l1.5,1.5l-1.5,1.5V7h-2V5h2V5.5z M9,5.5V5h2v2H9V5.5l-1.5,1.5L9,5.5z M8,13H6v-2h2V13z M18,13h-2v-2h2V13z"/>
</svg>

<!-- Volume Analysis Icon -->
<svg xmlns="http://www.w3.org/2000/svg" viewBox="0 0 24 24" width="64" height="64">
  <path fill="url(#purpleGradient)" d="M7,14H5v5h2V14z M11,10H9v9h2V10z M15,4h-2v15h2V4z M19,8h-2v11h2V8z"/>
</svg>

<!-- Profit Icon -->
<svg xmlns="http://www.w3.org/2000/svg" viewBox="0 0 24 24" width="64" height="64">
  <path fill="url(#purpleGradient)" d="M12,2C6.48,2,2,6.48,2,12s4.48,10,10,10s10-4.48,10-10S17.52,2,12,2z M13.41,18.09V20h-2.67v-1.93c-1.71-0.36-3.16-1.46-3.27-3.4h1.96c0.1,1.05,0.82,1.87,2.65,1.87c1.96,0,2.4-0.98,2.4-1.59c0-0.83-0.44-1.61-2.67-2.14c-2.48-0.6-4.18-1.62-4.18-3.67c0-1.72,1.39-2.84,3.11-3.21V4h2.67v1.95c1.86,0.45,2.79,1.86,2.85,3.39H14.3c-0.05-1.11-0.64-1.87-2.22-1.87c-1.5,0-2.4,0.68-2.4,1.64c0,0.84,0.65,1.39,2.67,1.91s4.18,1.39,4.18,3.91C16.53,16.64,15.41,17.67,13.41,18.09z"/>
</svg>
