<?xml version="1.0" encoding="UTF-8"?>
<svg width="24px" height="24px" viewBox="0 0 24 24" version="1.1" xmlns="http://www.w3.org/2000/svg" xmlns:xlink="http://www.w3.org/1999/xlink">
    <title>Solana Icon</title>
    <g id="Solana-Icon" stroke="none" stroke-width="1" fill="none" fill-rule="evenodd">
        <circle id="Background" fill="#4169E1" cx="12" cy="12" r="12"></circle>
        <path d="M6.5,9.5 L16.5,9.5 C16.7761424,9.5 17,9.72385763 17,10 C17,10.2761424 16.7761424,10.5 16.5,10.5 L6.5,10.5 C6.22385763,10.5 6,10.2761424 6,10 C6,9.72385763 6.22385763,9.5 6.5,9.5 Z" id="Line" fill="#FFFFFF" fill-rule="nonzero"></path>
        <path d="M6.5,13.5 L16.5,13.5 C16.7761424,13.5 17,13.7238576 17,14 C17,14.2761424 16.7761424,14.5 16.5,14.5 L6.5,14.5 C6.22385763,14.5 6,14.2761424 6,14 C6,13.7238576 6.22385763,13.5 6.5,13.5 Z" id="Line-Copy" fill="#FFFFFF" fill-rule="nonzero"></path>
        <path d="M6.5,17.5 L16.5,17.5 C16.7761424,17.5 17,17.7238576 17,18 C17,18.2761424 16.7761424,18.5 16.5,18.5 L6.5,18.5 C6.22385763,18.5 6,18.2761424 6,18 C6,17.7238576 6.22385763,17.5 6.5,17.5 Z" id="Line-Copy-2" fill="#FFFFFF" fill-rule="nonzero"></path>
    </g>
</svg>
