<?xml version="1.0" encoding="UTF-8"?>
<svg width="200" height="50" viewBox="0 0 200 50" fill="none" xmlns="http://www.w3.org/2000/svg">
  <path d="M20 10H40C45.5228 10 50 14.4772 50 20V30C50 35.5228 45.5228 40 40 40H20C14.4772 40 10 35.5228 10 30V20C10 14.4772 14.4772 10 20 10Z" fill="url(#paint0_linear)"/>
  <path d="M65 15H70.5L76 35H71L70 30H65.5L64.5 35H60L65 15ZM69 26L67.5 19L66 26H69Z" fill="white"/>
  <path d="M80 15H84.5V31.5H91V35H80V15Z" fill="white"/>
  <path d="M95 15H99.5V31.5H106V35H95V15Z" fill="white"/>
  <path d="M110 15H120.5C122.5 15 124 15.5 125 16.5C126 17.5 126.5 19 126.5 21V22C126.5 24.5 125.5 26 123.5 26.5C124.5 27 125 27.5 125.5 28.5C126 29.5 126 30.5 126 32V33.5C126 34 126 34.5 126 35H121.5C121.5 34.5 121.5 34 121.5 33.5V31C121.5 29.5 121 28.5 119.5 28.5H114.5V35H110V15ZM119 24.5C120.5 24.5 121.5 23.5 121.5 22V21C121.5 19.5 120.5 18.5 119 18.5H114.5V24.5H119Z" fill="white"/>
  <path d="M130 15H145V18.5H134.5V23H143V26.5H134.5V31.5H145V35H130V15Z" fill="white"/>
  <path d="M150 15H160.5C162.5 15 164 15.5 165 16.5C166 17.5 166.5 19 166.5 21V29C166.5 31 166 32.5 165 33.5C164 34.5 162.5 35 160.5 35H150V15ZM160 31.5C161.5 31.5 162 30.5 162 29V21C162 19.5 161.5 18.5 160 18.5H154.5V31.5H160Z" fill="white"/>
  <path d="M170 15H175.5L181 35H176L175 30H170.5L169.5 35H165L170 15ZM174 26L172.5 19L171 26H174Z" fill="white"/>
  <defs>
    <linearGradient id="paint0_linear" x1="10" y1="25" x2="50" y2="25" gradientUnits="userSpaceOnUse">
      <stop offset="0" stop-color="#CF7EED"/>
      <stop offset="1" stop-color="#4F60FA"/>
    </linearGradient>
  </defs>
</svg>
