<?xml version="1.0" encoding="utf-8"?>
<svg width="800px" height="800px" viewBox="0 0 800 800" fill="none" xmlns="http://www.w3.org/2000/svg">
<rect width="800" height="800" rx="100" fill="black"/>
<path d="M600.503 269.676C581.479 278.129 560.959 283.802 539.503 286.176C561.564 273.177 578.502 252.354 586.503 227.176C565.983 239.476 543.223 248.176 519.103 252.776C499.423 231.876 471.183 219.176 440.103 219.176C380.303 219.176 332.103 267.376 332.103 327.176C332.103 335.576 333.103 343.776 334.903 351.576C245.303 347.176 165.903 304.176 112.503 238.976C103.303 254.776 98.1031 273.176 98.1031 292.776C98.1031 329.776 116.903 362.376 145.303 381.576C127.903 381.176 111.503 376.376 97.1031 368.576V369.576C97.1031 422.376 134.503 466.376 184.103 476.176C175.303 478.576 166.103 479.976 156.503 479.976C149.703 479.976 143.103 479.176 136.703 478.176C150.103 521.576 190.903 553.176 239.303 553.976C201.703 583.176 154.503 600.776 103.103 600.776C94.7031 600.776 86.5031 600.176 78.5031 599.176C127.503 630.176 186.103 648.176 249.703 648.176C439.903 648.176 544.503 494.576 544.503 360.976C544.503 356.576 544.503 352.176 544.303 347.776C565.103 332.976 583.103 314.376 597.103 292.976C597.103 292.976 600.503 269.676 600.503 269.676Z" fill="white"/>
</svg>
