<svg xmlns="http://www.w3.org/2000/svg" width="300" height="500" viewBox="0 0 300 500">
  <!-- Fondo del teléfono -->
  <rect x="0" y="0" width="300" height="500" rx="20" ry="20" fill="#1a1a2e" />
  
  <!-- Pantalla del teléfono -->
  <rect x="15" y="40" width="270" height="420" rx="5" ry="5" fill="#0f3460" />
  
  <!-- Interfaz de Telegram -->
  <rect x="15" y="40" width="270" height="50" rx="5" ry="5" fill="#16213e" />
  <text x="35" y="70" font-family="Arial" font-size="16" fill="#ffffff">PrimeAlpha Bot</text>
  
  <!-- Mensajes -->
  <rect x="30" y="110" width="200" height="40" rx="10" ry="10" fill="#16213e" />
  <text x="45" y="135" font-family="Arial" font-size="12" fill="#ffffff">/start</text>
  
  <rect x="70" y="160" width="200" height="60" rx="10" ry="10" fill="#e94560" />
  <text x="85" y="185" font-family="Arial" font-size="12" fill="#ffffff">¡Bienvenido a PrimeAlpha Bot!</text>
  <text x="85" y="205" font-family="Arial" font-size="12" fill="#ffffff">Gana 15-35% diario automáticamente</text>
  
  <rect x="30" y="230" width="200" height="40" rx="10" ry="10" fill="#16213e" />
  <text x="45" y="255" font-family="Arial" font-size="12" fill="#ffffff">/deposit</text>
  
  <rect x="70" y="280" width="200" height="80" rx="10" ry="10" fill="#e94560" />
  <text x="85" y="305" font-family="Arial" font-size="12" fill="#ffffff">Envía SOL a esta dirección:</text>
  <text x="85" y="325" font-family="Arial" font-size="10" fill="#ffffff">GTt4f9gGukB1i7YQMoYJnDdptoEpdTPcMZztBuF3SZ8p</text>
  <text x="85" y="345" font-family="Arial" font-size="12" fill="#ffffff">Mínimo: 1 SOL</text>
  
  <rect x="30" y="370" width="200" height="40" rx="10" ry="10" fill="#16213e" />
  <text x="45" y="395" font-family="Arial" font-size="12" fill="#ffffff">/balance</text>
  
  <rect x="70" y="420" width="200" height="60" rx="10" ry="10" fill="#e94560" />
  <text x="85" y="445" font-family="Arial" font-size="12" fill="#ffffff">Tu balance actual:</text>
  <text x="85" y="465" font-family="Arial" font-size="12" fill="#ffffff">2.35 SOL (+35% en 24h)</text>
</svg>
